<?xml version="1.0" encoding="UTF-8"?>
<svg id="Camada_2" data-name="Camada 2" xmlns="http://www.w3.org/2000/svg" viewBox="0 0 699.28 757.49">
  <defs>
    <style>
      .cls-1, .cls-2, .cls-3 {
        fill: #b597ff;
      }

      .cls-4, .cls-5, .cls-6 {
        fill: #38e3ff;
      }

      .cls-4, .cls-2 {
        opacity: .25;
      }

      .cls-5, .cls-3 {
        opacity: .5;
      }
    </style>
  </defs>
  <g id="LOGO">
    <g>
      <path class="cls-6" d="M505.37,497.06c-.16,2.07-.41,7.25-.64,11.44-.21,4.21-.48,8.61-.64,9.8-.14,1.21-.36,4.05-.52,6.37-.14,2.31-.38,5.21-.53,6.49-.12,1.24-.4,4.35-.6,6.87-.21,2.52-.48,5.28-.64,6.11-.16.85-.43,3.19-.64,5.23-.4,4.12-1.31,11.94-1.52,13.11-.09.4-.36,2.36-.64,4.31-1.28,8.9-2.67,17.63-2.9,18.2-.09.21-.31,1.4-.52,2.67-.81,4.97-3.05,15.48-4.24,19.93-.76,2.86-2.55,7.94-3.04,8.58-.1.12-.35.76-.6,1.35-.22.6-.81,1.74-1.29,2.5-.48.76-.9,1.47-.9,1.57s-.43.74-.97,1.45c-.52.69-1.12,1.55-1.35,1.92-.69,1.04-3.52,4.09-5.56,5.95-1.81,1.64-2.73,2.35-4.71,3.59-.43.26-.93.64-1.12.81-.57.57-7.51,3.85-9.59,4.54-.85.29-1.69.59-2.54.9-.69.29-4.5,1.26-8.9,2.26-1.97.45-3.99.93-4.47,1.07-1.16.29-8.54,1.78-14.11,2.8-5.09.93-14.01,2.29-20.5,3.12-1.76.24-4.42.59-5.97.83-5.44.76-21.45,2.31-32.34,3.14-8.49.64-10.49.78-15.91,1.04-3.16.14-7.56.35-9.8.5-17.86,1.04-69.67,1.04-87.81,0-2.24-.12-6.64-.36-9.8-.5-3.16-.16-7.14-.4-8.9-.52-11.72-.85-14.15-1.05-16.55-1.29-1.47-.16-5-.48-7.89-.76-7.99-.78-20.72-2.24-23.79-2.78-.85-.16-2.73-.43-4.21-.64-3.92-.57-10.15-1.55-13.36-2.14-5.57-1.02-12.96-2.5-14.13-2.8-.48-.14-2.48-.62-4.45-1.07-4.5-1.02-8.25-1.97-8.9-2.26-.28-.14-.97-.36-1.54-.53-3-.9-9.99-4.23-10.99-5.19-.21-.21-.45-.4-.55-.4-.14,0-.62-.29-1.12-.71-.48-.38-1.23-.91-1.6-1.19-2.29-1.64-6.44-5.87-7.9-8.02-.33-.48-.97-1.4-1.4-2.04-.45-.64-1.47-2.42-2.26-3.93-2.88-5.54-3.95-8.89-6.38-20.12-.71-3.21-1.71-8.26-2.14-10.82-.22-1.19-.57-3.07-.76-4.19-.95-4.99-1.81-10.44-2.55-16.03-.21-1.55-.55-3.95-.76-5.35-.41-2.62-.9-6.57-1.54-12.6-.19-1.9-.48-4.37-.62-5.5-.14-1.14-.43-4.12-.64-6.63-.21-2.48-.52-5.47-.64-6.59-.22-1.83-.69-7.61-1.28-16.41-.12-1.76-.33-5.69-.48-8.78-.16-3.07-.41-7.2-.53-9.16-.36-4.83-.74-18.7-.91-34.23-.17-12.44.16-35.29.66-45.93.66-14.39,1.98-34.79,2.52-39.46.16-1.28.47-4.35.67-6.87.22-2.52.45-4.99.53-5.47.05-.5.33-2.97.6-5.49.55-5.12,1.19-10.2,2.16-17.17,1-7.21,2.55-17.13,2.93-18.58.12-.48.33-1.76.48-2.8.19-1.05.47-2.66.66-3.57.21-.91.57-2.57.78-3.69,1.35-6.66,3.23-14.8,3.66-15.77.12-.29.53-1.43.95-2.55,2.48-7.23,7.45-14.51,12.99-19.01,5.71-4.66,13.11-8.25,20.57-10.02.16-.02,1.35-.31,2.67-.6,1.33-.31,3.33-.79,4.45-1.07,4.05-.97,11.2-2.42,15.41-3.14,1.19-.19,3.07-.55,4.19-.76,1.12-.21,2.85-.5,3.83-.64.98-.16,2.74-.43,3.93-.64,5.68-.97,19.17-2.67,28.25-3.55,2.17-.21,5.09-.48,6.51-.64,5.57-.55,13.48-1.19,20.74-1.62,15.67-.97,24.23-1.38,35.89-1.66,19.39-.48,50.64-.26,67.57.48,8.77.38,24.59,1.29,30.3,1.78,1.67.12,4.42.36,6.11.48,1.67.16,4.19.38,5.59.53,1.4.12,4.28.43,6.37.64,7.51.74,11.2,1.12,11.96,1.28.43.09,2.5.38,4.59.62,10.4,1.33,26.38,3.93,31.3,5.12,1.14.26,2.29.5,3.43.74,4.05.83,5.94,1.24,6.87,1.52,1.36.35,2.73.69,4.07,1.02,7.9,1.93,14.01,4.69,19.5,8.73,2.78,2.04,7.42,6.88,9.21,9.59.88,1.33,1.69,2.52,1.79,2.67.71,1,3.54,7.28,4.09,9.16.17.57.41,1.24.53,1.54.28.59,1.12,3.87,1.83,7.13.29,1.24.74,3.3,1.02,4.57,1.98,9.04,4.3,22.31,5.56,31.82.28,2.09.55,4.12.64,4.49.17.79.98,7.51,1.66,13.58.28,2.52.55,4.87.62,5.23.09.36.31,2.64.52,5.09.21,2.43.43,4.92.5,5.47.09.55.36,4.05.64,7.76.29,3.71.62,8.21.78,10.06.12,1.79.35,5.76.5,8.78.16,3,.38,7.25.52,9.4,1.14,19.1,1.14,67.66,0,86.17Z"/>
      <path class="cls-4" d="M606.19,518.68c-.23,3.11-.62,10.87-.96,17.16-.31,6.32-.72,12.91-.96,14.7-.21,1.81-.54,6.08-.78,9.55-.21,3.47-.57,7.82-.8,9.73-.18,1.86-.6,6.52-.91,10.3s-.72,7.92-.96,9.16c-.23,1.27-.65,4.79-.96,7.84-.6,6.19-1.97,17.91-2.28,19.67-.13.6-.54,3.55-.96,6.47-1.92,13.35-4.01,26.45-4.35,27.3-.13.31-.47,2.1-.78,4.01-1.22,7.45-4.58,23.22-6.37,29.89-1.14,4.3-3.83,11.91-4.56,12.86-.16.18-.52,1.14-.91,2.02-.34.91-1.22,2.61-1.94,3.75-.72,1.14-1.35,2.2-1.35,2.36s-.65,1.11-1.45,2.17c-.78,1.04-1.68,2.33-2.02,2.87-1.04,1.55-5.28,6.13-8.33,8.93-2.72,2.46-4.09,3.52-7.07,5.38-.65.39-1.4.96-1.68,1.22-.85.85-11.26,5.77-14.39,6.81-1.27.44-2.54.88-3.8,1.35-1.04.44-6.75,1.89-13.35,3.39-2.95.67-5.98,1.4-6.7,1.6-1.73.44-12.81,2.67-21.17,4.19-7.64,1.4-21.02,3.44-30.75,4.68-2.64.36-6.63.88-8.95,1.24-8.15,1.14-32.17,3.47-48.5,4.71-12.73.96-15.74,1.16-23.86,1.55-4.74.21-11.34.52-14.7.75-26.79,1.55-104.51,1.55-131.71,0-3.36-.18-9.96-.54-14.7-.75-4.74-.23-10.71-.6-13.35-.78-17.57-1.27-21.22-1.58-24.82-1.94-2.2-.23-7.51-.72-11.83-1.14-11.98-1.16-31.08-3.36-35.69-4.17-1.27-.23-4.09-.65-6.32-.96-5.88-.85-15.22-2.33-20.03-3.21-8.36-1.53-19.44-3.75-21.2-4.19-.72-.21-3.73-.93-6.68-1.6-6.75-1.53-12.37-2.95-13.35-3.39-.41-.21-1.45-.54-2.3-.8-4.5-1.35-14.99-6.34-16.49-7.79-.31-.31-.67-.6-.83-.6-.21,0-.93-.44-1.68-1.06-.72-.57-1.84-1.37-2.41-1.79-3.44-2.46-9.65-8.8-11.85-12.03-.49-.72-1.45-2.1-2.1-3.05-.67-.96-2.2-3.62-3.39-5.9-4.32-8.31-5.93-13.33-9.58-30.18-1.06-4.81-2.56-12.4-3.21-16.23-.34-1.79-.85-4.61-1.14-6.29-1.42-7.48-2.72-15.66-3.83-24.04-.31-2.33-.83-5.93-1.14-8.02-.62-3.93-1.35-9.86-2.3-18.89-.28-2.85-.72-6.55-.93-8.26-.21-1.71-.65-6.19-.96-9.94-.31-3.73-.78-8.2-.96-9.89-.34-2.74-1.04-11.41-1.92-24.61-.18-2.64-.49-8.54-.72-13.17-.23-4.61-.62-10.79-.8-13.74-.54-7.25-1.11-28.06-1.37-51.35-.26-18.66.23-52.93.98-68.9.98-21.58,2.98-52.18,3.78-59.19.23-1.92.7-6.52,1.01-10.3.34-3.78.67-7.48.8-8.2.08-.75.49-4.45.91-8.23.83-7.69,1.79-15.3,3.24-25.75,1.5-10.82,3.83-25.7,4.4-27.87.18-.72.49-2.64.72-4.19.28-1.58.7-3.99.98-5.36.31-1.37.85-3.86,1.16-5.54,2.02-9.99,4.84-22.21,5.49-23.66.18-.44.8-2.15,1.42-3.83,3.73-10.84,11.18-21.77,19.49-28.52,8.57-6.99,19.67-12.37,30.85-15.04.23-.03,2.02-.47,4.01-.91,1.99-.47,5-1.19,6.68-1.6,6.08-1.45,16.8-3.62,23.11-4.71,1.79-.28,4.61-.83,6.29-1.14,1.68-.31,4.27-.75,5.75-.96,1.48-.23,4.12-.65,5.9-.96,8.51-1.45,28.75-4.01,42.37-5.33,3.26-.31,7.64-.72,9.76-.96,8.36-.83,20.21-1.79,31.11-2.43,23.5-1.45,36.34-2.07,53.83-2.48,29.09-.72,75.96-.39,101.35.72,13.15.57,36.88,1.94,45.45,2.67,2.51.18,6.63.54,9.16.72,2.51.23,6.29.57,8.39.8,2.1.18,6.42.65,9.55.96,11.26,1.11,16.8,1.68,17.94,1.92.65.13,3.75.57,6.88.93,15.61,1.99,39.57,5.9,46.95,7.69,1.71.39,3.44.75,5.15,1.11,6.08,1.24,8.9,1.86,10.3,2.28,2.04.52,4.09,1.04,6.11,1.53,11.85,2.9,21.02,7.04,29.25,13.1,4.17,3.05,11.13,10.33,13.82,14.39,1.32,1.99,2.54,3.78,2.69,4.01,1.06,1.5,5.31,10.92,6.13,13.74.26.85.62,1.86.8,2.3.41.88,1.68,5.8,2.74,10.69.44,1.86,1.11,4.94,1.53,6.86,2.98,13.56,6.44,33.46,8.33,47.73.41,3.13.83,6.19.96,6.73.26,1.19,1.48,11.26,2.48,20.37.41,3.78.83,7.3.93,7.84.13.54.47,3.96.78,7.64.31,3.65.65,7.38.75,8.2.13.83.54,6.08.96,11.65.44,5.56.93,12.32,1.16,15.09.18,2.69.52,8.64.75,13.17.23,4.5.57,10.87.78,14.11,1.71,28.65,1.71,101.48,0,129.25Z"/>
      <path class="cls-5" d="M555.78,507.87c-.19,2.59-.52,9.06-.8,14.3-.26,5.26-.6,10.76-.8,12.25-.17,1.51-.45,5.07-.65,7.96-.17,2.89-.47,6.51-.67,8.11-.15,1.55-.5,5.44-.75,8.58s-.6,6.6-.8,7.64c-.19,1.06-.54,3.99-.8,6.54-.5,5.15-1.64,14.93-1.9,16.39-.11.5-.45,2.95-.8,5.39-1.6,11.13-3.34,22.04-3.62,22.75-.11.26-.39,1.75-.65,3.34-1.01,6.21-3.82,19.35-5.31,24.91-.95,3.58-3.19,9.92-3.8,10.72-.13.15-.43.95-.75,1.68-.28.75-1.01,2.18-1.62,3.13-.6.95-1.12,1.83-1.12,1.96s-.54.93-1.21,1.81c-.65.86-1.4,1.94-1.68,2.39-.86,1.29-4.4,5.11-6.94,7.44-2.26,2.05-3.41,2.93-5.89,4.49-.54.32-1.16.8-1.4,1.01-.71.71-9.38,4.81-11.99,5.67-1.06.37-2.11.73-3.17,1.12-.86.37-5.63,1.57-11.13,2.83-2.46.56-4.98,1.16-5.59,1.34-1.45.37-10.68,2.22-17.64,3.49-6.36,1.16-17.51,2.87-25.62,3.9-2.2.3-5.52.73-7.46,1.04-6.79.95-26.81,2.89-40.42,3.93-10.61.8-13.11.97-19.89,1.29-3.95.17-9.45.43-12.25.63-22.32,1.29-87.09,1.29-109.76,0-2.8-.15-8.3-.45-12.25-.63-3.95-.19-8.93-.5-11.13-.65-14.64-1.06-17.69-1.32-20.68-1.62-1.83-.19-6.25-.6-9.86-.95-9.99-.97-25.9-2.8-29.74-3.47-1.06-.19-3.41-.54-5.26-.8-4.9-.71-12.68-1.94-16.69-2.67-6.97-1.27-16.2-3.13-17.66-3.49-.6-.17-3.11-.78-5.56-1.34-5.63-1.27-10.31-2.46-11.13-2.83-.35-.17-1.21-.45-1.92-.67-3.75-1.12-12.49-5.28-13.74-6.49-.26-.26-.56-.5-.69-.5-.17,0-.78-.37-1.4-.88-.6-.47-1.53-1.14-2.01-1.49-2.87-2.05-8.04-7.33-9.88-10.03-.41-.6-1.21-1.75-1.75-2.55-.56-.8-1.83-3.02-2.83-4.92-3.6-6.92-4.94-11.11-7.98-25.15-.88-4.01-2.14-10.33-2.67-13.52-.28-1.49-.71-3.84-.95-5.24-1.19-6.23-2.26-13.05-3.19-20.04-.26-1.94-.69-4.94-.95-6.69-.52-3.28-1.12-8.22-1.92-15.74-.24-2.37-.6-5.46-.78-6.88-.17-1.42-.54-5.15-.8-8.28-.26-3.11-.65-6.84-.8-8.24-.28-2.29-.86-9.51-1.6-20.51-.15-2.2-.41-7.12-.6-10.98-.19-3.84-.52-8.99-.67-11.45-.45-6.04-.93-23.38-1.14-42.79-.22-15.55.19-44.11.82-57.41.82-17.99,2.48-43.48,3.15-49.33.19-1.6.58-5.44.84-8.58.28-3.15.56-6.23.67-6.84.06-.63.41-3.71.75-6.86.69-6.41,1.49-12.75,2.7-21.46,1.25-9.02,3.19-21.42,3.67-23.23.15-.6.41-2.2.6-3.49.24-1.32.58-3.32.82-4.46.26-1.14.71-3.21.97-4.62,1.68-8.33,4.03-18.51,4.57-19.71.15-.37.67-1.79,1.19-3.19,3.11-9.04,9.32-18.14,16.24-23.77,7.14-5.82,16.39-10.31,25.71-12.53.19-.02,1.68-.39,3.34-.75,1.66-.39,4.16-.99,5.56-1.34,5.07-1.21,14-3.02,19.26-3.93,1.49-.24,3.84-.69,5.24-.95,1.4-.26,3.56-.63,4.79-.8,1.23-.19,3.43-.54,4.92-.8,7.1-1.21,23.96-3.34,35.31-4.44,2.72-.26,6.36-.6,8.13-.8,6.97-.69,16.84-1.49,25.93-2.03,19.58-1.21,30.28-1.73,44.86-2.07,24.24-.6,63.3-.32,84.46.6,10.96.47,30.73,1.62,37.87,2.22,2.09.15,5.52.45,7.64.6,2.09.19,5.24.47,6.99.67,1.75.15,5.35.54,7.96.8,9.38.93,14,1.4,14.95,1.6.54.11,3.13.47,5.74.78,13.01,1.66,32.98,4.92,39.12,6.41,1.42.32,2.87.63,4.29.93,5.07,1.04,7.42,1.55,8.58,1.9,1.7.43,3.41.86,5.09,1.27,9.88,2.42,17.51,5.87,24.37,10.91,3.47,2.55,9.27,8.61,11.52,11.99,1.1,1.66,2.11,3.15,2.24,3.34.88,1.25,4.42,9.1,5.11,11.45.22.71.52,1.55.67,1.92.35.73,1.4,4.83,2.29,8.91.37,1.55.93,4.12,1.27,5.72,2.48,11.3,5.37,27.89,6.95,39.77.35,2.61.69,5.15.8,5.61.22.99,1.23,9.38,2.07,16.97.35,3.15.69,6.08.78,6.54.11.45.39,3.3.65,6.36.26,3.04.54,6.15.63,6.84.11.69.45,5.07.8,9.71.37,4.64.78,10.27.97,12.57.15,2.24.43,7.2.63,10.98.19,3.75.47,9.06.65,11.75,1.42,23.88,1.42,84.57,0,107.71Z"/>
      <path class="cls-6" d="M505.37,497.06c-.16,2.07-.41,7.25-.64,11.44-.21,4.21-.48,8.61-.64,9.8-.14,1.21-.36,4.05-.52,6.37-.14,2.31-.38,5.21-.53,6.49-.12,1.24-.4,4.35-.6,6.87-.21,2.52-.48,5.28-.64,6.11-.16.85-.43,3.19-.64,5.23-.4,4.12-1.31,11.94-1.52,13.11-.09.4-.36,2.36-.64,4.31-1.28,8.9-2.67,17.63-2.9,18.2-.09.21-.31,1.4-.52,2.67-.81,4.97-3.05,15.48-4.24,19.93-.76,2.86-2.55,7.94-3.04,8.58-.1.12-.35.76-.6,1.35-.22.6-.81,1.74-1.29,2.5-.48.76-.9,1.47-.9,1.57s-.43.74-.97,1.45c-.52.69-1.12,1.55-1.35,1.92-.69,1.04-3.52,4.09-5.56,5.95-1.81,1.64-2.73,2.35-4.71,3.59-.43.26-.93.64-1.12.81-.57.57-7.51,3.85-9.59,4.54-.85.29-1.69.59-2.54.9-.69.29-4.5,1.26-8.9,2.26-1.97.45-3.99.93-4.47,1.07-1.16.29-8.54,1.78-14.11,2.8-5.09.93-14.01,2.29-20.5,3.12-1.76.24-4.42.59-5.97.83-5.44.76-21.45,2.31-32.34,3.14-8.49.64-10.49.78-15.91,1.04-3.16.14-7.56.35-9.8.5-17.86,1.04-69.67,1.04-87.81,0-2.24-.12-6.64-.36-9.8-.5-3.16-.16-7.14-.4-8.9-.52-11.72-.85-14.15-1.05-16.55-1.29-1.47-.16-5-.48-7.89-.76-7.99-.78-20.72-2.24-23.79-2.78-.85-.16-2.73-.43-4.21-.64-3.92-.57-10.15-1.55-13.36-2.14-5.57-1.02-12.96-2.5-14.13-2.8-.48-.14-2.48-.62-4.45-1.07-4.5-1.02-8.25-1.97-8.9-2.26-.28-.14-.97-.36-1.54-.53-3-.9-9.99-4.23-10.99-5.19-.21-.21-.45-.4-.55-.4-.14,0-.62-.29-1.12-.71-.48-.38-1.23-.91-1.6-1.19-2.29-1.64-6.44-5.87-7.9-8.02-.33-.48-.97-1.4-1.4-2.04-.45-.64-1.47-2.42-2.26-3.93-2.88-5.54-3.95-8.89-6.38-20.12-.71-3.21-1.71-8.26-2.14-10.82-.22-1.19-.57-3.07-.76-4.19-.95-4.99-1.81-10.44-2.55-16.03-.21-1.55-.55-3.95-.76-5.35-.41-2.62-.9-6.57-1.54-12.6-.19-1.9-.48-4.37-.62-5.5-.14-1.14-.43-4.12-.64-6.63-.21-2.48-.52-5.47-.64-6.59-.22-1.83-.69-7.61-1.28-16.41-.12-1.76-.33-5.69-.48-8.78-.16-3.07-.41-7.2-.53-9.16-.36-4.83-.74-18.7-.91-34.23-.17-12.44.16-35.29.66-45.93.66-14.39,1.98-34.79,2.52-39.46.16-1.28.47-4.35.67-6.87.22-2.52.45-4.99.53-5.47.05-.5.33-2.97.6-5.49.55-5.12,1.19-10.2,2.16-17.17,1-7.21,2.55-17.13,2.93-18.58.12-.48.33-1.76.48-2.8.19-1.05.47-2.66.66-3.57.21-.91.57-2.57.78-3.69,1.35-6.66,3.23-14.8,3.66-15.77.12-.29.53-1.43.95-2.55,2.48-7.23,7.45-14.51,12.99-19.01,5.71-4.66,13.11-8.25,20.57-10.02.16-.02,1.35-.31,2.67-.6,1.33-.31,3.33-.79,4.45-1.07,4.05-.97,11.2-2.42,15.41-3.14,1.19-.19,3.07-.55,4.19-.76,1.12-.21,2.85-.5,3.83-.64.98-.16,2.74-.43,3.93-.64,5.68-.97,19.17-2.67,28.25-3.55,2.17-.21,5.09-.48,6.51-.64,5.57-.55,13.48-1.19,20.74-1.62,15.67-.97,24.23-1.38,35.89-1.66,19.39-.48,50.64-.26,67.57.48,8.77.38,24.59,1.29,30.3,1.78,1.67.12,4.42.36,6.11.48,1.67.16,4.19.38,5.59.53,1.4.12,4.28.43,6.37.64,7.51.74,11.2,1.12,11.96,1.28.43.09,2.5.38,4.59.62,10.4,1.33,26.38,3.93,31.3,5.12,1.14.26,2.29.5,3.43.74,4.05.83,5.94,1.24,6.87,1.52,1.36.35,2.73.69,4.07,1.02,7.9,1.93,14.01,4.69,19.5,8.73,2.78,2.04,7.42,6.88,9.21,9.59.88,1.33,1.69,2.52,1.79,2.67.71,1,3.54,7.28,4.09,9.16.17.57.41,1.24.53,1.54.28.59,1.12,3.87,1.83,7.13.29,1.24.74,3.3,1.02,4.57,1.98,9.04,4.3,22.31,5.56,31.82.28,2.09.55,4.12.64,4.49.17.79.98,7.51,1.66,13.58.28,2.52.55,4.87.62,5.23.09.36.31,2.64.52,5.09.21,2.43.43,4.92.5,5.47.09.55.36,4.05.64,7.76.29,3.71.62,8.21.78,10.06.12,1.79.35,5.76.5,8.78.16,3,.38,7.25.52,9.4,1.14,19.1,1.14,67.66,0,86.17Z"/>
      <circle class="cls-2" cx="533.29" cy="165.98" r="165.98"/>
      <circle class="cls-3" cx="533.29" cy="165.98" r="134.05"/>
      <circle class="cls-1" cx="533.29" cy="165.98" r="102"/>
    </g>
  </g>
</svg>