<?xml version="1.0" encoding="UTF-8"?>
<svg id="Camada_2" xmlns="http://www.w3.org/2000/svg" version="1.1" viewBox="0 0 802.8 290">
  <!-- Generator: Adobe Illustrator 29.5.1, SVG Export Plug-In . SVG Version: 2.1.0 Build 141)  -->
  <defs>
    <style>
      .st0 {
        fill: #b597ff;
      }

      .st1 {
        opacity: .2;
      }

      .st2 {
        fill: #38e3ff;
      }

      .st3 {
        opacity: .5;
      }
    </style>
  </defs>
  <g id="LOGO">
    <g>
      <path d="M353.9,231.3c-6.3,0-11.9-1-16.7-3-4.8-2-8.6-5.3-11.3-10-2.7-4.7-4-11.1-4-19.2v-38.9h-15.8v-20.5h15.8l2.7-25.1h21.8v25.1h24.2v20.5h-24.2v39.3c0,4.1.9,7,2.7,8.5,1.8,1.6,4.9,2.4,9.3,2.4h11.8v20.9h-16.4Z"/>
      <path d="M393.2,231.3V100.4h24.5v130.8h-24.5Z"/>
      <path d="M456.4,127.1c-4.5,0-8.1-1.3-10.9-3.9-2.8-2.6-4.2-5.9-4.2-9.9s1.4-7.3,4.2-9.9c2.8-2.6,6.4-3.9,10.9-3.9s8.1,1.3,11,3.9c2.8,2.6,4.3,5.9,4.3,9.9s-1.4,7.3-4.3,9.9c-2.8,2.6-6.5,3.9-11,3.9ZM444.1,231.3v-91.6h24.5v91.6h-24.5Z"/>
      <path d="M495.1,231.3v-91.6h21.6l1.6,15.1c2.9-5.3,6.9-9.5,12.1-12.6,5.1-3.1,11.3-4.6,18.4-4.6s14.1,1.6,19.3,4.8c5.2,3.2,9.2,7.8,12,13.9,2.8,6.1,4.2,13.4,4.2,22.2v52.9h-24.5v-50.7c0-7.1-1.6-12.7-4.7-16.5-3.2-3.9-7.9-5.8-14.4-5.8s-7.6,1-10.8,2.9c-3.2,1.9-5.7,4.7-7.5,8.3-1.8,3.6-2.7,8-2.7,13.2v48.7h-24.5Z"/>
      <path d="M620.2,232.2c-4.6,0-8.3-1.4-11.1-4.1-2.8-2.7-4.2-6.1-4.2-10.1s1.4-7.4,4.2-10.1c2.8-2.7,6.5-4.1,11.1-4.1s8,1.4,10.8,4.1c2.8,2.7,4.3,6.1,4.3,10.1s-1.4,7.4-4.3,10.1c-2.8,2.7-6.5,4.1-10.8,4.1Z"/>
      <path d="M687.6,233.5c-7.5,0-13.8-1.2-18.7-3.7-5-2.5-8.7-5.8-11.2-10-2.5-4.2-3.7-8.8-3.7-13.9s1.4-10.7,4.3-14.9c2.8-4.2,7.2-7.5,13-9.9,5.8-2.4,13.2-3.5,22.2-3.5h22.4c0-4.6-.6-8.4-1.7-11.3-1.2-2.9-3-5.1-5.6-6.5-2.6-1.5-6-2.2-10.3-2.2s-8.5,1-11.7,2.9c-3.2,1.9-5.2,5-5.9,9.3h-23.8c.6-6.7,2.8-12.4,6.5-17.1,3.7-4.7,8.6-8.4,14.7-11.1,6.1-2.7,12.9-4,20.4-4s16.1,1.4,22.4,4.3c6.4,2.8,11.2,7,14.5,12.5,3.3,5.5,5,12.2,5,20.1v56.9h-20.5l-2.7-14c-1.3,2.4-2.9,4.6-4.8,6.5-1.9,1.9-4.1,3.6-6.5,5.1-2.5,1.5-5.2,2.6-8.1,3.4-2.9.8-6.2,1.2-10,1.2ZM693.6,214.6c3,0,5.8-.6,8.3-1.7,2.5-1.1,4.6-2.8,6.5-4.8,1.8-2.1,3.3-4.4,4.4-6.9,1.1-2.5,1.8-5.3,2.2-8.4v-.2h-18.7c-3.9,0-7,.5-9.4,1.4-2.4.9-4.1,2.2-5.2,3.9-1.1,1.7-1.6,3.6-1.6,5.8s.5,4.3,1.6,5.9c1.1,1.6,2.7,2.9,4.8,3.7,2.1.8,4.5,1.3,7.2,1.3Z"/>
      <path d="M777.9,127.1c-4.5,0-8.1-1.3-10.9-3.9-2.8-2.6-4.2-5.9-4.2-9.9s1.4-7.3,4.2-9.9c2.8-2.6,6.4-3.9,10.9-3.9s8.1,1.3,11,3.9c2.8,2.6,4.3,5.9,4.3,9.9s-1.4,7.3-4.3,9.9c-2.8,2.6-6.5,3.9-11,3.9ZM765.6,231.3v-91.6h24.5v91.6h-24.5Z"/>
    </g>
    <g>
      <g class="st1">
        <path class="st2" d="M252.5,190.5c0,1.3-.3,4.5-.4,7.1-.1,2.6-.3,5.4-.4,6.1,0,.8-.2,2.5-.3,4,0,1.4-.2,3.3-.3,4.1,0,.8-.2,2.7-.4,4.3s-.3,3.3-.4,3.8c0,.5-.3,2-.4,3.3-.2,2.6-.8,7.5-.9,8.2,0,.2-.2,1.5-.4,2.7-.8,5.6-1.7,11-1.8,11.4,0,.1-.2.9-.3,1.7-.5,3.1-1.9,9.7-2.7,12.5-.5,1.8-1.6,5-1.9,5.4,0,0-.2.5-.4.8-.1.4-.5,1.1-.8,1.6-.3.5-.6.9-.6,1s-.3.5-.6.9c-.3.4-.7,1-.8,1.2-.4.6-2.2,2.6-3.5,3.7-1.1,1-1.7,1.5-2.9,2.2-.3.2-.6.4-.7.5-.4.4-4.7,2.4-6,2.8-.5.2-1.1.4-1.6.6-.4.2-2.8.8-5.6,1.4-1.2.3-2.5.6-2.8.7-.7.2-5.3,1.1-8.8,1.7-3.2.6-8.8,1.4-12.8,2-1.1.2-2.8.4-3.7.5-3.4.5-13.4,1.4-20.2,2-5.3.4-6.6.5-9.9.6-2,0-4.7.2-6.1.3-11.2.6-43.5.6-54.9,0-1.4,0-4.2-.2-6.1-.3-2,0-4.5-.2-5.6-.3-7.3-.5-8.8-.7-10.3-.8-.9,0-3.1-.3-4.9-.5-5-.5-12.9-1.4-14.9-1.7-.5,0-1.7-.3-2.6-.4-2.4-.4-6.3-1-8.3-1.3-3.5-.6-8.1-1.6-8.8-1.7-.3,0-1.6-.4-2.8-.7-2.8-.6-5.2-1.2-5.6-1.4-.2,0-.6-.2-1-.3-1.9-.6-6.2-2.6-6.9-3.2-.1-.1-.3-.2-.3-.2s-.4-.2-.7-.4c-.3-.2-.8-.6-1-.7-1.4-1-4-3.7-4.9-5-.2-.3-.6-.9-.9-1.3-.3-.4-.9-1.5-1.4-2.5-1.8-3.5-2.5-5.6-4-12.6-.4-2-1.1-5.2-1.3-6.8-.1-.7-.4-1.9-.5-2.6-.6-3.1-1.1-6.5-1.6-10-.1-1-.3-2.5-.5-3.3-.3-1.6-.6-4.1-1-7.9-.1-1.2-.3-2.7-.4-3.4,0-.7-.3-2.6-.4-4.1-.1-1.6-.3-3.4-.4-4.1-.1-1.1-.4-4.8-.8-10.3,0-1.1-.2-3.6-.3-5.5,0-1.9-.3-4.5-.3-5.7-.2-3-.5-11.7-.6-21.4-.1-7.8,0-22,.4-28.7.4-9,1.2-21.7,1.6-24.7,0-.8.3-2.7.4-4.3.1-1.6.3-3.1.3-3.4,0-.3.2-1.9.4-3.4.3-3.2.7-6.4,1.3-10.7.6-4.5,1.6-10.7,1.8-11.6,0-.3.2-1.1.3-1.7.1-.7.3-1.7.4-2.2.1-.6.4-1.6.5-2.3.8-4.2,2-9.2,2.3-9.9,0-.2.3-.9.6-1.6,1.6-4.5,4.7-9.1,8.1-11.9,3.6-2.9,8.2-5.2,12.9-6.3,0,0,.8-.2,1.7-.4.8-.2,2.1-.5,2.8-.7,2.5-.6,7-1.5,9.6-2,.7-.1,1.9-.3,2.6-.5.7-.1,1.8-.3,2.4-.4.6,0,1.7-.3,2.5-.4,3.5-.6,12-1.7,17.6-2.2,1.4-.1,3.2-.3,4.1-.4,3.5-.3,8.4-.7,13-1,9.8-.6,15.1-.9,22.4-1,12.1-.3,31.6-.2,42.2.3,5.5.2,15.4.8,18.9,1.1,1,0,2.8.2,3.8.3,1,0,2.6.2,3.5.3.9,0,2.7.3,4,.4,4.7.5,7,.7,7.5.8.3,0,1.6.2,2.9.4,6.5.8,16.5,2.5,19.6,3.2.7.2,1.4.3,2.1.5,2.5.5,3.7.8,4.3.9.9.2,1.7.4,2.5.6,4.9,1.2,8.8,2.9,12.2,5.5,1.7,1.3,4.6,4.3,5.8,6,.5.8,1.1,1.6,1.1,1.7.4.6,2.2,4.5,2.6,5.7.1.4.3.8.3,1,.2.4.7,2.4,1.1,4.5.2.8.5,2.1.6,2.9,1.2,5.6,2.7,13.9,3.5,19.9.2,1.3.3,2.6.4,2.8.1.5.6,4.7,1,8.5.2,1.6.3,3,.4,3.3,0,.2.2,1.6.3,3.2.1,1.5.3,3.1.3,3.4,0,.3.2,2.5.4,4.9.2,2.3.4,5.1.5,6.3,0,1.1.2,3.6.3,5.5,0,1.9.2,4.5.3,5.9.7,11.9.7,42.3,0,53.8Z"/>
      </g>
      <g class="st3">
        <path class="st2" d="M231.5,186c0,1.1-.2,3.8-.3,6-.1,2.2-.3,4.5-.3,5.1,0,.6-.2,2.1-.3,3.3,0,1.2-.2,2.7-.3,3.4,0,.6-.2,2.3-.3,3.6s-.3,2.7-.3,3.2c0,.4-.2,1.7-.3,2.7-.2,2.1-.7,6.2-.8,6.8,0,.2-.2,1.2-.3,2.2-.7,4.6-1.4,9.2-1.5,9.5,0,.1-.2.7-.3,1.4-.4,2.6-1.6,8.1-2.2,10.4-.4,1.5-1.3,4.1-1.6,4.5,0,0-.2.4-.3.7-.1.3-.4.9-.7,1.3-.3.4-.5.8-.5.8s-.2.4-.5.8c-.3.4-.6.8-.7,1-.4.5-1.8,2.1-2.9,3.1-.9.9-1.4,1.2-2.5,1.9-.2.1-.5.3-.6.4-.3.3-3.9,2-5,2.4-.4.2-.9.3-1.3.5-.4.2-2.3.7-4.6,1.2-1,.2-2.1.5-2.3.6-.6.2-4.4.9-7.3,1.5-2.7.5-7.3,1.2-10.7,1.6-.9.1-2.3.3-3.1.4-2.8.4-11.2,1.2-16.8,1.6-4.4.3-5.5.4-8.3.5-1.6,0-3.9.2-5.1.3-9.3.5-36.3.5-45.7,0-1.2,0-3.5-.2-5.1-.3-1.6,0-3.7-.2-4.6-.3-6.1-.4-7.4-.5-8.6-.7-.8,0-2.6-.3-4.1-.4-4.2-.4-10.8-1.2-12.4-1.4-.4,0-1.4-.2-2.2-.3-2-.3-5.3-.8-7-1.1-2.9-.5-6.7-1.3-7.4-1.5-.3,0-1.3-.3-2.3-.6-2.3-.5-4.3-1-4.6-1.2-.1,0-.5-.2-.8-.3-1.6-.5-5.2-2.2-5.7-2.7-.1-.1-.2-.2-.3-.2s-.3-.2-.6-.4c-.3-.2-.6-.5-.8-.6-1.2-.9-3.4-3.1-4.1-4.2-.2-.3-.5-.7-.7-1.1-.2-.3-.8-1.3-1.2-2-1.5-2.9-2.1-4.6-3.3-10.5-.4-1.7-.9-4.3-1.1-5.6-.1-.6-.3-1.6-.4-2.2-.5-2.6-.9-5.4-1.3-8.3-.1-.8-.3-2.1-.4-2.8-.2-1.4-.5-3.4-.8-6.6,0-1-.3-2.3-.3-2.9,0-.6-.2-2.1-.3-3.4-.1-1.3-.3-2.8-.3-3.4-.1-1-.4-4-.7-8.5,0-.9-.2-3-.3-4.6,0-1.6-.2-3.7-.3-4.8-.2-2.5-.4-9.7-.5-17.8,0-6.5,0-18.4.3-23.9.3-7.5,1-18.1,1.3-20.5,0-.7.2-2.3.4-3.6.1-1.3.2-2.6.3-2.8,0-.3.2-1.5.3-2.9.3-2.7.6-5.3,1.1-8.9.5-3.8,1.3-8.9,1.5-9.7,0-.3.2-.9.3-1.5,0-.5.2-1.4.3-1.9.1-.5.3-1.3.4-1.9.7-3.5,1.7-7.7,1.9-8.2,0-.2.3-.7.5-1.3,1.3-3.8,3.9-7.6,6.8-9.9,3-2.4,6.8-4.3,10.7-5.2,0,0,.7-.2,1.4-.3.7-.2,1.7-.4,2.3-.6,2.1-.5,5.8-1.3,8-1.6.6,0,1.6-.3,2.2-.4.6-.1,1.5-.3,2-.3.5,0,1.4-.2,2-.3,3-.5,10-1.4,14.7-1.9,1.1-.1,2.7-.3,3.4-.3,2.9-.3,7-.6,10.8-.8,8.2-.5,12.6-.7,18.7-.9,10.1-.3,26.4-.1,35.2.3,4.6.2,12.8.7,15.8.9.9,0,2.3.2,3.2.3.9,0,2.2.2,2.9.3.7,0,2.2.2,3.3.3,3.9.4,5.8.6,6.2.7.2,0,1.3.2,2.4.3,5.4.7,13.7,2,16.3,2.7.6.1,1.2.3,1.8.4,2.1.4,3.1.6,3.6.8.7.2,1.4.4,2.1.5,4.1,1,7.3,2.4,10.2,4.5,1.4,1.1,3.9,3.6,4.8,5,.5.7.9,1.3.9,1.4.4.5,1.8,3.8,2.1,4.8,0,.3.2.6.3.8.1.3.6,2,1,3.7.2.6.4,1.7.5,2.4,1,4.7,2.2,11.6,2.9,16.6.1,1.1.3,2.1.3,2.3,0,.4.5,3.9.9,7.1.1,1.3.3,2.5.3,2.7,0,.2.2,1.4.3,2.7.1,1.3.2,2.6.3,2.8,0,.3.2,2.1.3,4,.2,1.9.3,4.3.4,5.2,0,.9.2,3,.3,4.6,0,1.6.2,3.8.3,4.9.6,9.9.6,35.2,0,44.9Z"/>
      </g>
      <path class="st2" d="M210.5,181.5c0,.9-.2,3-.3,4.8,0,1.8-.2,3.6-.3,4.1,0,.5-.2,1.7-.2,2.7,0,1-.2,2.2-.2,2.7,0,.5-.2,1.8-.3,2.9s-.2,2.2-.3,2.5c0,.4-.2,1.3-.3,2.2-.2,1.7-.5,5-.6,5.5,0,.2-.2,1-.3,1.8-.5,3.7-1.1,7.3-1.2,7.6,0,0-.1.6-.2,1.1-.3,2.1-1.3,6.4-1.8,8.3-.3,1.2-1.1,3.3-1.3,3.6,0,0-.1.3-.3.6,0,.3-.3.7-.5,1-.2.3-.4.6-.4.7s-.2.3-.4.6c-.2.3-.5.6-.6.8-.3.4-1.5,1.7-2.3,2.5-.8.7-1.1,1-2,1.5-.2.1-.4.3-.5.3-.2.2-3.1,1.6-4,1.9-.4.1-.7.2-1.1.4-.3.1-1.9.5-3.7.9-.8.2-1.7.4-1.9.4-.5.1-3.6.7-5.9,1.2-2.1.4-5.8,1-8.5,1.3-.7.1-1.8.2-2.5.3-2.3.3-8.9,1-13.5,1.3-3.5.3-4.4.3-6.6.4-1.3,0-3.1.1-4.1.2-7.4.4-29,.4-36.6,0-.9,0-2.8-.2-4.1-.2-1.3,0-3-.2-3.7-.2-4.9-.4-5.9-.4-6.9-.5-.6,0-2.1-.2-3.3-.3-3.3-.3-8.6-.9-9.9-1.2-.4,0-1.1-.2-1.8-.3-1.6-.2-4.2-.6-5.6-.9-2.3-.4-5.4-1-5.9-1.2-.2,0-1-.3-1.9-.4-1.9-.4-3.4-.8-3.7-.9-.1,0-.4-.2-.6-.2-1.3-.4-4.2-1.8-4.6-2.2,0,0-.2-.2-.2-.2s-.3-.1-.5-.3c-.2-.2-.5-.4-.7-.5-1-.7-2.7-2.4-3.3-3.3-.1-.2-.4-.6-.6-.8-.2-.3-.6-1-.9-1.6-1.2-2.3-1.6-3.7-2.7-8.4-.3-1.3-.7-3.4-.9-4.5,0-.5-.2-1.3-.3-1.7-.4-2.1-.8-4.3-1.1-6.7,0-.6-.2-1.6-.3-2.2-.2-1.1-.4-2.7-.6-5.2,0-.8-.2-1.8-.3-2.3,0-.5-.2-1.7-.3-2.8,0-1-.2-2.3-.3-2.7,0-.8-.3-3.2-.5-6.8,0-.7-.1-2.4-.2-3.7,0-1.3-.2-3-.2-3.8-.2-2-.3-7.8-.4-14.3,0-5.2,0-14.7.3-19.1.3-6,.8-14.5,1-16.4,0-.5.2-1.8.3-2.9,0-1,.2-2.1.2-2.3,0-.2.1-1.2.3-2.3.2-2.1.5-4.2.9-7.2.4-3,1.1-7.1,1.2-7.7,0-.2.1-.7.2-1.2,0-.4.2-1.1.3-1.5,0-.4.2-1.1.3-1.5.6-2.8,1.3-6.2,1.5-6.6,0-.1.2-.6.4-1.1,1-3,3.1-6,5.4-7.9,2.4-1.9,5.5-3.4,8.6-4.2,0,0,.6-.1,1.1-.3.6-.1,1.4-.3,1.9-.4,1.7-.4,4.7-1,6.4-1.3.5,0,1.3-.2,1.7-.3.5,0,1.2-.2,1.6-.3.4,0,1.1-.2,1.6-.3,2.4-.4,8-1.1,11.8-1.5.9,0,2.1-.2,2.7-.3,2.3-.2,5.6-.5,8.6-.7,6.5-.4,10.1-.6,14.9-.7,8.1-.2,21.1-.1,28.1.2,3.7.2,10.2.5,12.6.7.7,0,1.8.2,2.5.2.7,0,1.7.2,2.3.2.6,0,1.8.2,2.7.3,3.1.3,4.7.5,5,.5.2,0,1,.2,1.9.3,4.3.6,11,1.6,13,2.1.5.1,1,.2,1.4.3,1.7.3,2.5.5,2.9.6.6.1,1.1.3,1.7.4,3.3.8,5.8,2,8.1,3.6,1.2.8,3.1,2.9,3.8,4,.4.6.7,1,.7,1.1.3.4,1.5,3,1.7,3.8,0,.2.2.5.2.6.1.2.5,1.6.8,3,.1.5.3,1.4.4,1.9.8,3.8,1.8,9.3,2.3,13.3.1.9.2,1.7.3,1.9,0,.3.4,3.1.7,5.7.1,1,.2,2,.3,2.2,0,.2.1,1.1.2,2.1,0,1,.2,2,.2,2.3,0,.2.2,1.7.3,3.2.1,1.5.3,3.4.3,4.2,0,.7.1,2.4.2,3.7,0,1.3.2,3,.2,3.9.5,8,.5,28.2,0,35.9Z"/>
    </g>
    <g>
      <g class="st1">
        <circle class="st0" cx="210.9" cy="58.1" r="58.1"/>
      </g>
      <g class="st3">
        <circle class="st0" cx="210.9" cy="58.1" r="46.9"/>
      </g>
      <circle class="st0" cx="210.9" cy="58.1" r="35.7"/>
    </g>
  </g>
</svg>